<?xml version="1.0" standalone="no"?>
<!DOCTYPE svg PUBLIC "-//W3C//DTD SVG 20010904//EN"
 "http://www.w3.org/TR/2001/REC-SVG-20010904/DTD/svg10.dtd">
<svg version="1.0" xmlns="http://www.w3.org/2000/svg"
 width="294.000000pt" height="294.000000pt" viewBox="0 0 294.000000 294.000000"
 preserveAspectRatio="xMidYMid meet">
<metadata>
Created by potrace 1.11, written by Peter Selinger 2001-2013
</metadata>
<g transform="translate(0.000000,294.000000) scale(0.100000,-0.100000)"
fill="#000000" stroke="none">
<path d="M206 2714 c-3 -9 -6 -24 -6 -34 0 -10 225 -307 500 -661 275 -354
500 -646 500 -649 0 -3 -216 -247 -479 -543 -264 -295 -489 -549 -500 -563
-45 -57 -100 -54 1151 -52 l1150 3 114 284 c63 156 114 286 114 288 0 1 -11 3
-24 3 -19 0 -31 -12 -54 -53 -64 -113 -216 -225 -385 -283 -204 -70 -280 -76
-1067 -81 -377 -3 -703 -3 -724 -1 l-40 3 473 530 c261 292 480 540 488 552
14 22 -3 45 -429 593 -243 313 -445 575 -447 581 -2 7 196 9 680 6 572 -3 701
-7 789 -21 345 -54 557 -167 667 -353 19 -32 31 -43 50 -43 13 0 23 4 21 10
-1 5 -52 119 -113 254 l-110 246 -1156 0 c-1046 0 -1157 -2 -1163 -16z"/>
</g>
</svg>
